# xmcd
#
# Track frame offsets:
#	150
#	16425
#	26962
#	37957
#	57327
#	75392
#	92422
#	111012
#	126737
#	143457
#	158610
#	173987
#	185870
#	203395
#
# Disc length: 2950 seconds
#
# Revision: 3
# Processed by: cddbd v1.5.1PL0 Copyright (c) Steve Scherf et al.
# Submitted via: audiograbber 1.83.01
#
DISCID=b20b840e
DTITLE=Various Artist - Hot Hits Country Vol. 43
DYEAR=1900
DGENRE=Country
TTITLE0=David Lee Murphy - Party Crowd
TTITLE1=Sammy Kershaw - If Your're Gonna Walk I'm Gonna Crawl
TTITLE2=Ken Mellons - Workin For The Weekend
TTITLE3=Tracy Byrd - The Keeper Of The Stars
TTITLE4=Patty Loveless - You Don't Even Know Who I Am
TTITLE5=Travis Tritt - Tell Me I Was Dreaming
TTITLE6=Collin Raye - If I Were You
TTITLE7=Kathy Mattea - Clown In Your Rodeo
TTITLE8=Ty Herdon - What Mattered Most
TTITLE9=Wade Hayes - I'm Still Dancin With You
TTITLE10=John Berry - Standing On The Edge Of Goodbye
TTITLE11=Kenny Chesney - Fall In Love
TTITLE12=4 Runner - Cain's Blood
TTITLE13=Alison Krauss and Union Station - When You Say Nothing At All
EXTD=
EXTT0=
EXTT1=
EXTT2=
EXTT3=
EXTT4=
EXTT5=
EXTT6=
EXTT7=
EXTT8=
EXTT9=
EXTT10=
EXTT11=
EXTT12=
EXTT13=
PLAYORDER=
